# xmcd
#
# Track frame offsets:
# 150
# 26090
# 46197
# 62705
# 76432
# 93292
# 109877
# 125855
# 139512
# 158585
# 181617
#
# Disc length: 2699 seconds
#
#
# Revision: 6
# Processed by: cddbd v1.5.2PL0 Copyright (c) Steve Scherf et al.
# Submitted via: FreeRIP 2.951 
#
DISCID=880a890b
DTITLE=Etta James - The Right Time
DYEAR=1992
DGENRE=Blues
TTITLE0=I Sing the Blues
TTITLE1=Love and Happiness
TTITLE2=Evening of Love
TTITLE3=Wet Match
TTITLE4=You're Taking Up Another Man's Place
TTITLE5=Give It Up (with Steve Winwood)
TTITLE6=Let It Rock
TTITLE7=Ninety Nine and a Half (Won't Do)
TTITLE8=You've Got Me
TTITLE9=Nighttime Is the Right Time
TTITLE10=Down Home Blues
EXTD=YEAR: 1992 ID3G: 0
EXTT0=
EXTT1=
EXTT2=
EXTT3=
EXTT4=
EXTT5=(Duet With Steve Winwood)
EXTT6=
EXTT7=
EXTT8=
EXTT9=
EXTT10=
PLAYORDER=
